<svg xmlns="http://www.w3.org/2000/svg" width="1600" height="520" viewBox="0 0 1600 520" role="img" aria-labelledby="title"><title id="title">Εικονογραφημένο Παναχαϊκό, χιονισμένη κορυφή, καταφύγιο, μονοπάτι και ορειβάτης</title><rect width="1600" height="520" fill="#075ce1"/><path d="M0 330 190 292 340 320 530 250 700 300 920 170 1040 200 1170 140 1350 260 1600 210V520H0Z" fill="#1351ac"/><path d="M350 390 755 180 895 70 1040 154 1190 105 1550 345 1600 520H300Z" fill="#f9f8e9"/><path d="m705 205 190-135 114 88-75-20-43-32-55 48-31-5Z" fill="#2a6ed7"/><path d="m800 238 95-168 20 95-35-28-28 64 41-17 10 60-40-19-37 46Z" fill="#2c6fc7"/><path d="m1010 153 180-48 220 202-165-105-30 46-35-64-72 38-11-67Z" fill="#377ad5"/><path d="M380 420 610 290 735 300 905 235 1020 340 1220 285 1600 360V520H0Z" fill="#c1d63b"/><path d="M0 490 340 402 470 460 600 390 770 460 920 370 1080 425 1260 350 1600 440V520H0Z" fill="#21374c"/><path d="M760 520q-80-50 70-102t30-70q-150-55 72-113" fill="none" stroke="#fffdf5" stroke-width="26" stroke-linecap="round"/><g transform="translate(900 242)"><path d="M0 0h54v43H0z" fill="#f8f7eb"/><path d="M-7 1 25-23 61 1" fill="#f46b33"/><path d="M33 20h13v23H33Z" fill="#263548"/></g><circle cx="1440" cy="89" r="43" fill="#ff9a3b"/><path d="M0 174Q250 95 490 151M1200 62q88-48 175-38" stroke="#fff" stroke-width="4" fill="none" opacity=".85"/><g transform="translate(1310 170)" stroke-linecap="round"><path d="M0 49 45 12l54 22-17 90-40 27-39-30Z" fill="#ff601f"/><circle cx="47" cy="-2" r="29" fill="#1d3049"/><path d="M35 10 75 4l40 45-18 84-45 4-40-54Z" fill="#192d43"/><path d="m28 20 22 43-22 64m33-109 24 39-2 65" stroke="#f7f7ed" fill="none" stroke-width="5"/><path d="m24 133-25 89 66 35 20 78m-1-203 58 67-9 105" stroke="#1b2a43" fill="none" stroke-width="30"/><path d="m-10 207-38 6m161 84 31 10" stroke="#ff601f" stroke-width="24"/><path d="m3 59-62 95m158-105 66 90" stroke="#ff601f" stroke-width="21"/><path d="m-58 142-38 260m259-263 40 258" stroke="#1b2a43" stroke-width="8"/></g></svg>