<svg xmlns="http://www.w3.org/2000/svg" viewBox="0 0 360 900"><rect width="360" height="900" fill="#ff8b20"/><circle cx="85" cy="150" r="66" fill="#ffd900"/><path d="M0 520 110 335 175 440 260 260 360 455V900H0Z" fill="#0b2633"/><path d="M0 630 120 500 200 560 285 420 360 565V900H0Z" fill="#ffcf33"/><g transform="translate(70 455)"><path d="M25 165V70L110 0l90 70v95Z" fill="#fffdf8" stroke="#0b2633" stroke-width="8"/><path d="M5 78 110-18 220 78" fill="none" stroke="#ff4fa3" stroke-width="18" stroke-linecap="round" stroke-linejoin="round"/><rect x="88" y="100" width="46" height="65" fill="#0b2633"/><rect x="40" y="96" width="34" height="30" fill="#10c8e8"/><rect x="150" y="96" width="34" height="30" fill="#10c8e8"/></g><path d="M270 690h60M300 660v60" stroke="#fffdf8" stroke-width="10" stroke-linecap="round"/></svg>