<svg xmlns="http://www.w3.org/2000/svg" viewBox="0 0 360 900"><rect width="360" height="900" fill="#10c8e8"/><circle cx="290" cy="150" r="70" fill="#ffd900"/><path d="M0 610 110 480 180 560 270 410 360 540V900H0Z" fill="#0b2633"/><g transform="rotate(-8 178 520)"><rect x="62" y="250" width="220" height="320" rx="24" fill="#fffdf8" stroke="#0b2633" stroke-width="8"/><rect x="88" y="286" width="168" height="92" rx="12" fill="#c8f2ff"/><path d="M88 378 130 330 176 362 218 310 256 378Z" fill="#0aa9a6"/><rect x="90" y="410" width="130" height="16" rx="8" fill="#ff4fa3"/><rect x="90" y="444" width="166" height="12" rx="6" fill="#c5cbd0"/><rect x="90" y="472" width="144" height="12" rx="6" fill="#c5cbd0"/><rect x="90" y="500" width="104" height="12" rx="6" fill="#ffd900"/></g><path d="M20 170h55M35 145v50" stroke="#ff4fa3" stroke-width="12" stroke-linecap="round"/></svg>